<?xml version="1.0" encoding="utf-8"?>
<!-- Generator: Adobe Illustrator 27.0.0, SVG Export Plug-In . SVG Version: 6.00 Build 0)  -->
<svg version="1.1" id="Concept_1_00000103947636287769866500000001575466523896774315_"
	 xmlns="http://www.w3.org/2000/svg" xmlns:xlink="http://www.w3.org/1999/xlink" x="0px" y="0px" viewBox="0 0 549.5 129.4"
	 style="enable-background:new 0 0 549.5 129.4;" xml:space="preserve">
<style type="text/css">
	.st0{fill:#0E1829;}
	.st1{fill:#2563EB;}
</style>
<g id="Vector_Smart_Object_xA0_Image_00000175286250582783969640000016970339555614812598_">
</g>
<g id="Rectangle_1_xA0_Image_00000080182218354761658990000014841679729338721424_">
</g>
<g id="Vector_Smart_Object_xA0_Image_00000124143105594449743040000001991380992540408458_">
	<g>
		<path class="st0" d="M101,68.3c0.1,0.1,0.1,0.1,0.1,0.2c0.2,0.3,0.5,0.5,0.7,0.8c1.9,1.9,3.8,3.9,5.8,5.8c2.4,2.4,4.8,4.8,7.1,7.2
			c0.6,0.6,1.2,1.2,1.8,1.8c0.4,0.4,0.7,0.9,0.9,1.5c0.5,1.5,0,3.2-1.2,4.2c-0.6,0.5-1.3,0.7-2.1,0.8c-0.5,0-1,0-1.5-0.2
			c-0.6-0.2-1.1-0.5-1.6-1c-1.6-1.6-3.2-3.2-4.8-4.8c-3.5-3.5-6.9-7-10.4-10.5c-0.1-0.1-0.2-0.2-0.4-0.4c0,0.1-0.1,0.1-0.1,0.2
			c-4.3,4.3-8.5,8.6-12.8,12.9c-0.7,0.7-1.3,1.3-2,2c-0.5,0.5-1,0.8-1.6,1.1c-1,0.5-2,0.6-3.1,0.4c-0.4-0.1-0.9-0.2-1.3-0.4
			c-1.6-0.7-2.5-1.9-2.9-3.6c-0.4-1.7,0-3.2,1.1-4.6c0.1-0.2,0.3-0.3,0.4-0.5c0.3-0.3,0.5-0.5,0.8-0.8c4.6-4.7,9.3-9.3,13.9-14
			c0,0,0.1-0.1,0.1-0.1c0,0-0.1-0.1-0.1-0.1c-1.5-1.6-3.1-3.1-4.6-4.7c-0.1-0.1-0.3-0.2-0.4-0.3c-0.8-0.2-1.6-0.1-2.3,0.2
			c-0.4,0.2-0.8,0.4-1.2,0.7c-0.1,0.1-0.2,0.2-0.2,0.3c-0.1,0.1-0.1,0.2,0,0.3c0.2,0.2,0.4,0.5,0.5,0.8c0.1,0.4,0.1,0.8-0.1,1.1
			c-0.1,0.3-0.3,0.6-0.5,0.8c-0.4,0.4-0.8,0.8-1.2,1.2c-0.2,0.2-0.4,0.4-0.7,0.5c-0.5,0.2-1,0.2-1.5,0c-0.3-0.1-0.5-0.3-0.7-0.5
			c-1.4-1.4-2.8-2.8-4.2-4.3c-0.4-0.4-0.8-0.8-1.1-1.1c-0.2-0.2-0.4-0.4-0.5-0.7c-0.2-0.4-0.2-0.9,0-1.3c0.1-0.2,0.2-0.4,0.4-0.6
			c0.5-0.6,1-1.1,1.6-1.6c0.6-0.5,1.4-0.6,2.1-0.2c0.1,0,0.2,0.1,0.2,0.1c0.2,0.1,0.3,0.1,0.5,0c0.1-0.1,0.2-0.2,0.3-0.2
			c2.9-3,5.9-5.9,8.8-8.9c0.9-0.9,1.8-1.7,2.9-2.3c1.5-0.9,3.1-1.5,4.8-1.7c2.1-0.3,4.2-0.1,6.3,0.6c0.3,0.1,0.6,0.2,1,0.4
			c0.2,0.1,0.4,0.3,0.5,0.5c0.2,0.4,0.1,0.7-0.3,0.8c-0.3,0.1-0.6,0.2-0.9,0.2c-0.3,0-0.7,0-1,0c-0.6,0-1.1,0-1.7,0.1
			c-0.4,0.1-0.9,0.2-1.3,0.3c-0.9,0.4-1.7,0.9-2.4,1.5c-1.2,1-2,2.2-2.3,3.7c-0.2,0.9-0.2,1.8-0.1,2.7c0.1,0.3,0.1,0.7,0.2,1
			c0,0.1,0.1,0.2,0.1,0.3c1.5,1.5,3.1,3.1,4.6,4.6c0.1,0.1,0.1,0.1,0.2,0.2c0.1,0,0.1-0.1,0.1-0.1c1.5-1.5,2.9-2.9,4.4-4.4
			c0.2-0.2,0.2-0.4,0.2-0.6c-0.1-0.6-0.2-1.3-0.2-2c0-2.2,0.7-4.2,2-6c0.9-1.1,1.9-2.1,3.1-2.8c1.1-0.6,2.2-1,3.5-1.1
			c0.5-0.1,1-0.1,1.6-0.1c0.6,0,1.1,0.3,1.4,0.8c0.3,0.4,0.3,0.8,0,1.2c-0.1,0.1-0.1,0.2-0.2,0.3c-1,1-1.9,2-2.9,3
			c-0.1,0.1-0.2,0.2-0.3,0.2c-0.7,0.6-1,1.5-0.9,2.4c0.1,1.6,0.9,2.8,2.1,3.8c0.6,0.5,1.4,0.8,2.2,1c0.6,0.1,1.2,0.1,1.8-0.1
			c0.4-0.1,0.7-0.3,0.9-0.6c1.1-1.1,2.2-2.2,3.2-3.3c0.1-0.1,0.2-0.2,0.3-0.3c0.3-0.3,0.7-0.3,1.1-0.1c0.6,0.3,0.9,0.8,1,1.5
			c0.1,1.9-0.3,3.6-1.3,5.2c-0.7,1.2-1.6,2.2-2.6,3.1c-1.3,1-2.7,1.6-4.2,1.8c-0.8,0.1-1.6,0.2-2.4,0.2c-0.4,0-0.8-0.1-1.2-0.2
			c-0.3-0.1-0.6,0-0.8,0.2c-1.4,1.4-2.8,2.9-4.2,4.3C101.1,68.2,101.1,68.2,101,68.3z M78.9,85.3c0-1.2-0.9-2-2.1-2
			c-1.1,0-2,0.9-2,2c0,1.1,0.9,2,2,2C78,87.3,78.9,86.4,78.9,85.3z"/>
	</g>
	<g>
		<path class="st1" d="M64.6,111.7c-7.4-0.3-14.8-0.1-22-0.9C35,109.9,32,106,31.9,98.4c-0.1-5.1,0-10.2,0-15.2
			c0-6.7-2.2-9.2-8.8-10c-0.8-0.1-1.6-0.2-2.6-0.3c0-1.9,0-3.8,0-5.6c0-1.9,0-3.8,0-5.9c1.7-0.2,3.3-0.4,4.9-0.7
			c4.5-1,6.5-3.5,6.5-8.1c0-5.2,0-10.5,0-15.7c0-9.1,2.9-12.9,11.9-13.7c6.8-0.6,13.8-0.1,20.8-0.1c0,3.5,0,6.9,0,10.7
			c-4.1,0-8.1,0-12.1,0c-1,0-2.1,0-3.1,0.2c-4,0.6-5.6,2.5-5.7,6.6c-0.1,4.5,0,9.1,0,13.6c0,7.3-2.3,10.3-9.3,12.4
			c-0.3,0.1-0.7,0.3-1.5,0.6c1.5,0.4,2.4,0.7,3.4,1c5,1.6,7.4,4.9,7.4,10.1c0,5,0,10,0,15c0,4.7,1.7,6.6,6.3,7
			c3.9,0.3,7.8,0.1,11.7,0.2c0.9,0,1.9,0,2.9,0C64.6,104.1,64.6,107.6,64.6,111.7z"/>
		<path class="st1" d="M122.6,111.3c0-3.6,0-7.1,0-11c2.4,0,4.8,0,7.1,0c2.6,0,5.2,0,7.8-0.2c4.2-0.4,5.9-2.3,5.9-6.6
			c0.1-4.7,0-9.4,0-14.1c0-7.1,2.2-10,9.1-11.9c0.4-0.1,0.7-0.2,1.2-0.8c-0.8-0.2-1.5-0.4-2.3-0.7c-5.2-1.6-7.9-5.1-8-10.5
			c-0.1-4.8,0-9.5,0-14.3c0-5.4-2-7.5-7.5-7.6c-4-0.1-7.9,0-11.9,0c-0.5,0-0.9-0.1-1.5-0.1c0-3.6,0-7,0-11c7.7,0.3,15.5,0.1,23,1
			c6.6,0.8,9.4,4.7,9.5,11.3c0.1,5.5,0,11,0.1,16.4c0,6.5,2.5,9.2,9.1,9.7c0.7,0.1,1.4,0.1,2.2,0.2c0,3.9,0,7.7,0,11.6
			c-1.3,0.2-2.5,0.3-3.7,0.5c-5.2,0.8-7.5,3.5-7.5,8.7c-0.1,5.2,0,10.5,0,15.7c0,1.5-0.2,3-0.4,4.5c-0.6,3.6-2.6,6.2-6,7.3
			c-2.5,0.8-5.1,1.5-7.6,1.6C135.1,111.5,129,111.3,122.6,111.3z"/>
	</g>
</g>
<g id="Coding_x0D_Werkstatt">
	<g>
		<path class="st0" d="M204.3,62.8c-2.9,0-5.7-0.5-8.1-1.5c-2.5-1-4.6-2.3-6.4-4.1c-1.8-1.7-3.2-3.8-4.2-6.2c-1-2.4-1.5-5-1.5-7.9
			c0-2.8,0.5-5.5,1.5-7.8c1-2.4,2.5-4.5,4.3-6.2c1.8-1.8,4-3.1,6.5-4.1c2.5-1,5.3-1.5,8.2-1.5c1.8,0,3.5,0.2,5.3,0.7
			c1.7,0.4,3.3,1.1,4.8,2c1.5,0.9,2.9,1.9,4,3.2l-6.4,7.4c-0.6-0.7-1.3-1.3-2-1.8c-0.8-0.5-1.6-1-2.6-1.3c-1-0.3-2-0.5-3.2-0.5
			c-1.3,0-2.6,0.2-3.7,0.7c-1.2,0.4-2.2,1.1-3,2c-0.9,0.9-1.5,1.9-2,3.1c-0.5,1.2-0.7,2.6-0.7,4.2c0,1.5,0.2,2.9,0.7,4.1
			c0.5,1.2,1.2,2.2,2.1,3.1c0.9,0.8,2,1.5,3.3,2c1.3,0.5,2.7,0.7,4.3,0.7c1.1,0,2.2-0.2,3.2-0.5c1-0.3,1.9-0.8,2.7-1.3
			c0.8-0.5,1.6-1.1,2.2-1.8l5.1,8c-0.9,1-2.1,1.9-3.6,2.7c-1.5,0.8-3.2,1.4-5.1,1.9C208,62.6,206.1,62.8,204.3,62.8z"/>
		<path class="st0" d="M241.8,62.8c-2.9,0-5.6-0.5-8-1.5c-2.4-1-4.6-2.3-6.4-4.1c-1.8-1.8-3.2-3.8-4.2-6.2c-1-2.4-1.5-5-1.5-7.8
			c0-2.9,0.5-5.5,1.5-7.9c1-2.4,2.4-4.4,4.2-6.2c1.8-1.8,3.9-3.1,6.4-4.1c2.4-1,5.1-1.5,8-1.5s5.6,0.5,8,1.5c2.4,1,4.5,2.3,6.4,4.1
			c1.8,1.8,3.2,3.8,4.2,6.2c1,2.4,1.5,5,1.5,7.8c0,2.9-0.5,5.5-1.5,7.9c-1,2.4-2.4,4.5-4.2,6.2c-1.8,1.8-3.9,3.1-6.4,4.1
			C247.4,62.3,244.8,62.8,241.8,62.8z M241.8,52.9c1.3,0,2.5-0.2,3.6-0.7c1.1-0.5,2.1-1.1,2.9-2c0.8-0.9,1.5-1.9,1.9-3.1
			c0.4-1.2,0.7-2.5,0.7-3.9c0-1.4-0.2-2.7-0.7-3.9c-0.4-1.2-1.1-2.2-1.9-3.1c-0.8-0.9-1.8-1.6-2.9-2c-1.1-0.5-2.3-0.7-3.6-0.7
			c-1.3,0-2.6,0.2-3.7,0.7c-1.1,0.5-2.1,1.1-2.9,2c-0.8,0.9-1.5,1.9-1.9,3.1c-0.4,1.2-0.7,2.5-0.7,3.9c0,1.4,0.2,2.7,0.7,3.9
			c0.4,1.2,1.1,2.2,1.9,3.1c0.8,0.9,1.8,1.6,2.9,2C239.3,52.6,240.5,52.9,241.8,52.9z"/>
		<path class="st0" d="M268.5,62.3V24.5h16.3c2.8,0,5.4,0.5,7.8,1.4c2.3,0.9,4.4,2.2,6.1,3.9c1.7,1.7,3.1,3.7,4,6
			c0.9,2.3,1.4,4.8,1.4,7.6c0,2.7-0.5,5.3-1.4,7.6c-0.9,2.3-2.3,4.3-4,6c-1.7,1.7-3.8,3-6.1,3.9s-4.9,1.4-7.8,1.4H268.5z
			 M279.2,55.5l-1.7-2.4h7c1.3,0,2.5-0.2,3.6-0.7c1.1-0.5,2-1.1,2.7-2c0.8-0.8,1.3-1.9,1.8-3c0.4-1.2,0.6-2.5,0.6-3.9
			c0-1.4-0.2-2.7-0.6-3.9c-0.4-1.2-1-2.2-1.8-3c-0.8-0.8-1.7-1.5-2.7-2c-1-0.5-2.2-0.7-3.6-0.7h-7.2l1.8-2.3V55.5z"/>
		<path class="st0" d="M309.4,62.3v-8.7h6.6V33.3h-6.6v-8.7h23.8v8.7h-6.5v20.3h6.5v8.7H309.4z"/>
		<path class="st0" d="M341.7,62.3V24.5h9.5l18.3,25.1l-2.2-0.5c-0.2-1.3-0.3-2.5-0.5-3.6c-0.1-1.1-0.2-2.1-0.3-3.1
			c-0.1-1-0.2-1.9-0.2-2.9c-0.1-1-0.1-2-0.1-3.2c0-1.1,0-2.4,0-3.9v-7.9h10.3v37.7H367l-19.7-27l3.7,0.9c0.2,1.5,0.3,2.7,0.5,3.8
			c0.1,1.1,0.2,2,0.3,2.9c0.1,0.9,0.1,1.7,0.2,2.5c0.1,0.8,0.1,1.6,0.1,2.5c0,0.9,0,1.9,0,3.1v11.2H341.7z"/>
		<path class="st0" d="M403.4,62.8c-3.1,0-5.9-0.5-8.4-1.5c-2.5-1-4.6-2.3-6.3-4.1c-1.7-1.8-3.1-3.8-4-6.3c-0.9-2.4-1.3-5-1.3-7.8
			c0-2.8,0.5-5.5,1.5-7.8c1-2.4,2.4-4.5,4.3-6.2c1.9-1.8,4.1-3.1,6.6-4.1c2.5-1,5.3-1.5,8.4-1.5c2.1,0,4.1,0.3,6,0.8
			s3.6,1.3,5.1,2.2c1.5,0.9,2.8,2,3.9,3.1l-6.4,6.8c-0.8-0.8-1.6-1.4-2.5-1.9s-1.8-1-2.9-1.3c-1-0.3-2.2-0.5-3.4-0.5
			c-1.4,0-2.7,0.3-3.9,0.8s-2.2,1.2-3,2.2s-1.5,2-2,3.3c-0.5,1.3-0.7,2.7-0.7,4.2c0,1.5,0.3,2.8,0.8,4.1c0.5,1.3,1.2,2.4,2.1,3.3
			c0.9,0.9,2,1.7,3.2,2.2c1.2,0.5,2.6,0.8,4,0.8c1,0,1.9-0.2,2.8-0.5c0.9-0.3,1.6-0.8,2.2-1.3c0.6-0.6,1.1-1.2,1.5-2
			c0.4-0.8,0.5-1.6,0.5-2.5v-1.5l1.4,2.3h-9.9v-7.8h18.2c0,0.4,0.1,1,0.1,1.8s0.1,1.6,0.1,2.4c0,0.8,0,1.3,0,1.7
			c0,2.4-0.5,4.6-1.3,6.7c-0.9,2-2.2,3.8-3.8,5.3c-1.6,1.5-3.5,2.6-5.7,3.5C408.4,62.4,406,62.8,403.4,62.8z"/>
		<path class="st1" d="M192.5,109.3l-10.9-37.7h10.7l4.9,18.1c0.3,1,0.5,2.1,0.7,3c0.2,1,0.4,1.9,0.5,2.7c0.1,0.8,0.2,1.6,0.3,2.3
			c0.1,0.7,0.1,1.3,0.2,1.8h-1c0.1-1.1,0.2-2.1,0.3-3.2c0.1-1,0.2-2.1,0.5-3.2c0.2-1.1,0.5-2.3,1-3.6l5.1-13.9h8.2l5,13.9
			c0.5,1.4,0.9,2.6,1.2,3.7c0.3,1.1,0.5,2.2,0.6,3.2c0.1,1,0.3,2,0.3,2.9l-0.9,0.1c0-0.5,0.1-1.1,0.1-1.6s0-1.1,0.1-1.7
			c0-0.6,0.1-1.2,0.2-1.9c0.1-0.7,0.2-1.4,0.3-2.2c0.1-0.8,0.3-1.6,0.5-2.5l4.9-18.1h10.4l-11,37.7h-8.3l-8.5-20.9h1.3l-7.7,20.9
			H192.5z"/>
		<path class="st1" d="M239.7,109.3V71.6h27.4v8.8h-17.2v20.2h18v8.8H239.7z M244.8,94.3V86H265v8.3H244.8z"/>
		<path class="st1" d="M275.2,109.3V71.6h17.4c2.6,0,4.8,0.5,6.8,1.6s3.6,2.5,4.7,4.3c1.1,1.8,1.7,3.9,1.7,6.2
			c0,2.5-0.6,4.7-1.7,6.7c-1.1,1.9-2.7,3.5-4.7,4.6c-2,1.1-4.3,1.6-6.8,1.6h-7.4v12.8H275.2z M285.2,88.8h5.9c0.9,0,1.7-0.2,2.3-0.6
			c0.6-0.4,1.1-0.9,1.5-1.6c0.3-0.7,0.5-1.4,0.5-2.3c0-0.9-0.2-1.6-0.5-2.2s-0.9-1.1-1.6-1.5c-0.7-0.3-1.6-0.5-2.6-0.5h-5.5V88.8z
			 M295.4,109.3l-9.6-17l10.9-1.3l10.7,18.4H295.4z"/>
		<path class="st1" d="M313.2,109.3V71.6h10.7v37.7H313.2z M320.8,98.5l-3.3-8.3l18.3-18.6H348L320.8,98.5z M337.1,109.3l-13.8-18.1
			l7-6l19,24.2H337.1z"/>
		<path class="st1" d="M365.6,109.9c-2.7,0-5.1-0.3-7.2-0.9c-2.1-0.6-4-1.5-5.6-2.6c-1.6-1.2-3-2.5-4.3-4l6.3-7.1
			c1.8,2.3,3.6,3.9,5.6,4.7c1.9,0.8,3.8,1.2,5.6,1.2c0.8,0,1.5-0.1,2.2-0.2c0.6-0.2,1.1-0.4,1.5-0.8c0.3-0.4,0.5-0.9,0.5-1.4
			c0-0.5-0.1-0.9-0.4-1.3c-0.3-0.4-0.7-0.7-1.2-0.9s-1.1-0.5-1.7-0.7c-0.6-0.2-1.2-0.4-1.8-0.5s-1.2-0.3-1.8-0.4
			c-2.1-0.5-4-1.1-5.6-1.8c-1.6-0.7-2.9-1.6-4-2.6c-1.1-1-1.9-2.1-2.4-3.4c-0.5-1.3-0.8-2.7-0.8-4.4c0-1.8,0.4-3.4,1.2-4.9
			s1.9-2.7,3.3-3.8c1.4-1.1,2.9-1.9,4.7-2.4c1.8-0.6,3.6-0.8,5.6-0.8c2.7,0,4.9,0.3,6.8,0.8c1.9,0.5,3.4,1.3,4.7,2.2
			c1.3,1,2.4,2.1,3.3,3.4l-6.4,6.1c-0.8-0.8-1.6-1.5-2.5-2c-0.9-0.5-1.8-0.9-2.7-1.2s-1.9-0.4-2.9-0.4c-0.9,0-1.7,0.1-2.3,0.3
			c-0.7,0.2-1.2,0.4-1.5,0.8c-0.4,0.3-0.5,0.8-0.5,1.4c0,0.5,0.2,0.9,0.6,1.3c0.4,0.4,0.9,0.7,1.5,0.9c0.6,0.3,1.3,0.5,2,0.6
			c0.7,0.2,1.3,0.3,1.9,0.4c2,0.4,3.8,0.9,5.4,1.5c1.6,0.6,3.1,1.4,4.3,2.4c1.2,1,2.2,2.1,2.8,3.5c0.6,1.4,1,3,1,4.8
			c0,2.7-0.7,5-2,6.8c-1.3,1.9-3.2,3.3-5.4,4.2S368.5,109.9,365.6,109.9z"/>
		<path class="st1" d="M395.7,109.3V80.8h-11.4v-9.2h33.9v9.2h-11.8v28.5H395.7z"/>
		<path class="st1" d="M416.5,109.3l15-37.7h8.6l14.9,37.7h-10.6L438,91.8c-0.4-1-0.7-1.9-1-2.7c-0.3-0.8-0.6-1.6-0.8-2.4
			c-0.3-0.8-0.5-1.6-0.7-2.4c-0.2-0.8-0.4-1.7-0.6-2.7l1.7-0.1c-0.2,1-0.4,2-0.7,2.8c-0.2,0.8-0.5,1.6-0.7,2.4
			c-0.3,0.8-0.5,1.5-0.8,2.4s-0.6,1.7-1,2.7l-6.5,17.5H416.5z M423.8,103.1l3.2-7.5h17.5l3,7.5H423.8z"/>
		<path class="st1" d="M464.9,109.3V80.8h-11.4v-9.2h33.9v9.2h-11.8v28.5H464.9z"/>
		<path class="st1" d="M503.7,109.3V80.8h-11.4v-9.2h33.9v9.2h-11.8v28.5H503.7z"/>
	</g>
</g>
</svg>
